<svg width="1440" height="563" viewBox="0 0 1440 563" fill="none" xmlns="http://www.w3.org/2000/svg">
<path fill-rule="evenodd" clip-rule="evenodd" d="M13.6036 79.0488C10.2913 76.9575 8.44802 75.7937 6.55712 76.2804C-0.36946 78.0752 -1.07533 100.347 1.07775 126H-71V563H1440V126.516C1440.26 114.516 1437.75 103.513 1429.66 97.434C1422.7 92.2119 1414.95 93.1177 1403.88 94.4121C1392.84 95.7038 1378.48 97.3826 1358.3 93.7441C1338.66 90.2132 1323.08 82.8014 1291.96 67.9461C1277.13 60.8758 1269.84 56.7042 1262.39 52.4338C1256.72 49.1919 1250.96 45.893 1241.73 41.2257C1213.8 27.1021 1181.05 10.5608 1136.19 3.4354C1102.57 -1.90869 1073.6 -0.159138 1053.79 2.5129C1013.82 7.8888 985.65 20.3583 978.399 23.6984C963.651 30.4682 957.13 35.2745 949.037 41.2392C942.49 46.0648 934.914 51.6486 921.12 59.6437L921.111 59.6489C901.023 71.2917 869.142 89.7691 825.643 98.3565C797.852 103.846 777.036 102.942 735.505 101.137L735.196 101.124C709.661 100.011 684.127 98.7383 651.792 90.9766C628.859 85.4735 607.072 77.7754 597.531 74.4036C586.857 70.6347 579.402 67.6894 573.124 65.2088C562.71 61.0943 555.532 58.2582 542.264 55.0631C526.419 51.2416 513.242 49.6464 497.367 47.7248L497.023 47.6832C477.664 45.361 462.329 44.534 451.782 43.9932C435.927 43.1661 428.017 42.7844 417.609 43.0707C403.697 43.4842 391.589 45.1702 367.372 48.6056C348.915 51.2141 339.687 52.5183 328.168 55.0631C314.742 58.0532 304.473 61.107 293.995 64.288C285.108 66.9776 280.004 68.7314 273.143 71.0889C269.049 72.4955 264.331 74.117 257.809 76.2804C239.318 82.4197 228.771 85.9188 216.593 89.1953C205.665 92.1536 185.438 97.5295 158.308 100.265C134.473 102.683 114.559 102.142 101.028 101.188C94.0548 100.71 78.7896 99.4063 59.8121 95.6527C48.0162 93.2987 40.8693 91.8355 31.6754 88.2728C22.5857 84.7199 17.2194 81.3318 13.6036 79.0488Z" fill="#A0B183"/>
</svg>
